# xmcd
#
# Track frame offsets:
#	150
#	13667
#	32630
#	51245
#	70372
#	83710
#	99012
#	115220
#	129612
#	147860
#	162240
#	175765
#
# Disc length: 2574 seconds
#
# Revision: 2
# Processed by: cddbd v1.5PL3 Copyright (c) Steve Scherf et al.
# Submitted via: audiograbber 1.82.02
#
DISCID=980a0c0c
DTITLE=Q.Stone - III
DYEAR=1992
DGENRE=Christan Blues
TTITLE0=Train, Train
TTITLE1=Salty Rain
TTITLE2=Blues People
TTITLE3=Do You Still Love Me
TTITLE4=Let Me Die In My Rockin' Chair
TTITLE5=Homesick
TTITLE6=Don't Leave Me Now
TTITLE7=Houseman
TTITLE8=Down Hearted
TTITLE9=Boogie Woogie Man
TTITLE10=Go On
TTITLE11=Frozen Memories
EXTD=
EXTT0=
EXTT1=
EXTT2=
EXTT3=
EXTT4=
EXTT5=
EXTT6=
EXTT7=
EXTT8=
EXTT9=
EXTT10=
EXTT11=
PLAYORDER=
